<?xml version="1.0" encoding="UTF-8"?>
<svg id="Layer_1" data-name="Layer 1" xmlns="http://www.w3.org/2000/svg" xmlns:xlink="http://www.w3.org/1999/xlink" viewBox="0 0 30 25.98">
  <defs>
    <style>
      .cls-1 {
        fill: url(#Silver);
      }
    </style>
    <linearGradient id="Silver" x1="0" y1="12.99" x2="30" y2="12.99" gradientUnits="userSpaceOnUse">
      <stop offset="0" stop-color="#e5e2df"/>
      <stop offset="0" stop-color="#ded9d6"/>
      <stop offset=".06" stop-color="#cfcac8"/>
      <stop offset=".18" stop-color="#a8a4a6"/>
      <stop offset=".26" stop-color="#8b878d"/>
      <stop offset=".52" stop-color="#f3f4f4"/>
      <stop offset=".58" stop-color="#e4e5e5"/>
      <stop offset=".7" stop-color="#bfbec0"/>
      <stop offset=".86" stop-color="#847f84"/>
      <stop offset=".88" stop-color="#807b80"/>
      <stop offset="1" stop-color="#d1d3d4"/>
      <stop offset="1" stop-color="#a7a9ac"/>
    </linearGradient>
  </defs>
  <path class="cls-1" d="M22.5,0H7.5L0,12.99l7.5,12.99h15l7.5-12.99L22.5,0ZM22.09,25.28H7.91L.81,12.99,7.91.71h14.19l7.09,12.29-7.09,12.29h0ZM21.31,6.65h-1.91v-1.87h-.56v1.87h-1.47v-1.87h-.56v1.87h-1.47v-1.87h-.56v1.87h-1.47v-1.87h-.56v1.87h-1.47v-1.87h-.56v1.87h-1.91v1.91h-1.87v.56h1.87v1.47h-1.87v.56h1.87v1.47h-1.87v.56h1.87v1.47h-1.87v.56h1.87v1.47h-1.87v.56h1.87v1.91h1.91v1.87h.56v-1.87h1.47v1.87h.56v-1.87h1.47v1.87h.56v-1.87h1.47v1.87h.56v-1.87h1.47v1.87h.56v-1.87h1.91v-1.91h1.87v-.56h-1.87v-1.47h1.87v-.56h-1.87v-1.47h1.87v-.56h-1.87v-1.47h1.87v-.56h-1.87v-1.47h1.87v-.56h-1.87s0-1.91,0-1.91ZM20.57,18.43h-11.05V7.38h11.05v11.05ZM19.4,17.25h-4.64v-.56h4.08v-4.07h.56v4.63Z"/>
</svg>