<?xml version="1.0" encoding="UTF-8"?>
<svg id="Layer_1" data-name="Layer 1" xmlns="http://www.w3.org/2000/svg" viewBox="0 0 30 25.98">
  <path d="M22.5,0H7.5L0,12.99l7.5,12.99h15l7.5-12.99L22.5,0ZM22.09,25.28H7.91L.81,12.99,7.91.71h14.19l7.09,12.29-7.09,12.29ZM21.31,6.65h-1.91v-1.87h-.56v1.87h-1.47v-1.87h-.56v1.87h-1.47v-1.87h-.56v1.87h-1.47v-1.87h-.56v1.87h-1.47v-1.87h-.56v1.87h-1.91v1.91h-1.87v.56h1.87v1.47h-1.87v.56h1.87v1.47h-1.87v.56h1.87v1.47h-1.87v.56h1.87v1.47h-1.87v.56h1.87v1.91h1.91v1.87h.56v-1.87h1.47v1.87h.56v-1.87h1.47v1.87h.56v-1.87h1.47v1.87h.56v-1.87h1.47v1.87h.56v-1.87h1.91v-1.91h1.87v-.56h-1.87v-1.47h1.87v-.56h-1.87v-1.47h1.87v-.56h-1.87v-1.47h1.87v-.56h-1.87v-1.47h1.87v-.56h-1.87v-1.91ZM20.57,18.43h-11.05V7.38h11.05v11.05ZM19.4,17.25h-4.64v-.56h4.08v-4.07h.56v4.63Z"/>
</svg>