<?xml version="1.0" encoding="UTF-8"?>
<svg id="Layer_1" data-name="Layer 1" xmlns="http://www.w3.org/2000/svg" xmlns:xlink="http://www.w3.org/1999/xlink" viewBox="0 0 30 25.98">
  <defs>
    <style>
      .cls-1 {
        fill: url(#Silver);
      }
    </style>
    <linearGradient id="Silver" x1="0" y1="12.99" x2="30" y2="12.99" gradientUnits="userSpaceOnUse">
      <stop offset="0" stop-color="#e5e2df"/>
      <stop offset="0" stop-color="#ded9d6"/>
      <stop offset=".06" stop-color="#cfcac8"/>
      <stop offset=".18" stop-color="#a8a4a6"/>
      <stop offset=".26" stop-color="#8b878d"/>
      <stop offset=".52" stop-color="#f3f4f4"/>
      <stop offset=".58" stop-color="#e4e5e5"/>
      <stop offset=".7" stop-color="#bfbec0"/>
      <stop offset=".86" stop-color="#847f84"/>
      <stop offset=".88" stop-color="#807b80"/>
      <stop offset="1" stop-color="#d1d3d4"/>
      <stop offset="1" stop-color="#a7a9ac"/>
    </linearGradient>
  </defs>
  <path class="cls-1" d="M22.5,25.98H7.5L0,12.99,7.5,0h15l7.5,12.99-7.5,12.99ZM7.91,25.28h14.19l7.09-12.29L22.1.7H7.91L.81,12.99l7.09,12.29h.01ZM23.35,14.99c.87-2,.73-4.3-.36-6.17s-3.03-3.12-5.19-3.35l-.07.82c1.9.21,3.59,1.3,4.55,2.95s1.08,3.66.32,5.41l.75.35h0ZM21.55,14.17c.6-1.41.5-3.02-.27-4.34s-2.13-2.2-3.65-2.38l-.07.82c1.25.15,2.37.88,3,1.97s.72,2.42.24,3.58l.75.35ZM19.75,13.34c.33-.82.26-1.75-.18-2.52s-1.22-1.28-2.1-1.4l-.07.83c.61.09,1.14.46,1.45.99s.36,1.18.14,1.75l.75.35h.01ZM10.23,6.87l-2.04.26c-.14.02-.18.15-.08.31.09.16.26.26.4.24l2.01-.31c.11-.02.13-.14.05-.28-.08-.14-.23-.24-.34-.22ZM17.78,18.8l-2.24,2.78c-.07.09-.07.26,0,.38.07.12.18.15.25.06l2.2-2.85c.05-.06.04-.2-.02-.3s-.15-.14-.2-.07h.01ZM18.66,17.73l-3.75-6.55c-.02-.11-.06-.22-.12-.33l-.47-.82c-.06-.11-.14-.2-.23-.28l-1.54-2.69c-.2-.36-.49-.68-.82-.91-.34-.24-.68-.36-.96-.34l-4.4.38c-.93.08-1.26.99-.68,2.01l1.52,2.66c.01.13.05.27.13.4l.63,1.1c.04.08.1.15.16.22.02.08.06.16.1.24l.63,1.1c.07.13.17.24.29.33l5.03,8.81c.28.5.67.82,1.07.89.4.08.76-.09,1.01-.45l2.56-3.59c.33-.47.25-1.43-.17-2.17h0ZM18.52,19.35l-2.64,3.46c-.15.2-.37.29-.6.24-.24-.05-.47-.25-.64-.55l-5.01-8.77-.11-.07s-.03-.03-.04-.04l-.61-1.07s-.01-.03-.01-.05v-.22l-.21-.15s-.03-.02-.03-.04l-.61-1.07s-.02-.04-.01-.05v-.11l-1.59-2.8c-.35-.61-.17-1.15.36-1.21l4.32-.5c.17-.02.37.05.57.19.21.14.39.35.52.57l1.68,2.94.09.06s.02.02.03.04l.48.84s.01.03.01.04v.1l3.94,6.89c.26.46.31,1.05.11,1.32h0Z"/>
</svg>