<?xml version="1.0" encoding="UTF-8"?>
<svg id="Layer_1" data-name="Layer 1" xmlns="http://www.w3.org/2000/svg" viewBox="0 0 30 25.98">
  <path d="M22.5,25.98H7.5L0,12.99,7.5,0h15l7.5,12.99-7.5,12.99ZM7.91,25.28h14.19l7.09-12.29L22.09.71H7.91L.81,12.99l7.09,12.29ZM20.89,17.65l-3.76-1.17,1.66-3.63,1.11-2.43c1.54-3.37-.62-7.36-4.31-7.74-.2-.02-.4-.03-.6-.03-.1,0-.2,0-.3,0-3.85.2-6.2,4.34-4.56,7.83l1.15,2.45,1.66,3.53-3.83,1.19v3.86l5.89,1.83,5.89-1.83v-3.86ZM10.98,7.97c0-2.21,1.79-4.01,4.01-4.01s4.01,1.79,4.01,4.01-1.79,4.01-4.01,4.01-4.01-1.79-4.01-4.01ZM15,22.85l-5.42-1.68v-3.17l3.57-1.11,1.93,4.09,1.86-4.07,3.49,1.08v3.17s-5.42,1.68-5.42,1.68Z"/>
</svg>