<?xml version="1.0" encoding="UTF-8"?>
<svg id="Layer_1" data-name="Layer 1" xmlns="http://www.w3.org/2000/svg" viewBox="0 0 30 25.98">
  <path d="M22.5,0H7.5L0,12.99l7.5,12.99h15l7.5-12.99L22.5,0ZM22.09,25.28H7.91L.81,12.99,7.91.71h14.19l7.09,12.29-7.09,12.29ZM22.34,19.39h0s0,0,0,0l-5.2-6.16c.67-.93,1.07-2.07,1.07-3.31,0-3.12-2.53-5.64-5.64-5.64s-5.64,2.53-5.64,5.64,2.53,5.64,5.64,5.64c1.14,0,2.19-.34,3.08-.92l5.12,6.07h0s0,0,0,0l1.51.99.78-.66-.72-1.65ZM12.61,14.91c-2.77,0-5.03-2.26-5.03-5.03s2.26-5.03,5.03-5.03,5.03,2.26,5.03,5.03-2.26,5.03-5.03,5.03ZM16.75,11.23l-.61-.45c.09-.42.16-1.02.07-1.71-.18-1.4-.91-2.35-1.26-2.77.33.23,1.19.9,1.66,2.14.49,1.28.25,2.4.15,2.78Z"/>
</svg>