<?xml version="1.0" encoding="UTF-8"?>
<svg id="Layer_1" data-name="Layer 1" xmlns="http://www.w3.org/2000/svg" viewBox="0 0 30 25.98">
  <path d="M22.5,25.98H7.5L0,12.99,7.5,0h15l7.5,12.99-7.5,12.99ZM7.91,25.28h14.19l7.09-12.29L22.09.71H7.91L.81,12.99l7.09,12.29ZM10.7,9.98v7.81h9.79l2.45,3.08v-3.08h.96v-7.81h-13.2ZM14.82,14.84h-1.09l-.54-.94.54-.94h1.09l.54.94-.54.94ZM17.84,14.84h-1.09l-.54-.94.54-.94h1.09l.54.94-.54.94ZM20.87,14.84h-1.09l-.54-.94.54-.94h1.09l.54.94-.54.94ZM6.1,7.45v7.81h.96v3.08l2.45-3.08h.77v-2.75h-.9l-.54-.94.54-.94h.9v-1.07h9.02v-2.11H6.1Z"/>
</svg>