<?xml version="1.0" encoding="UTF-8"?>
<svg id="Layer_1" data-name="Layer 1" xmlns="http://www.w3.org/2000/svg" xmlns:xlink="http://www.w3.org/1999/xlink" viewBox="0 0 30 25.98">
  <defs>
    <style>
      .cls-1 {
        fill: url(#Silver);
      }
    </style>
    <linearGradient id="Silver" x1="0" y1="12.99" x2="30" y2="12.99" gradientUnits="userSpaceOnUse">
      <stop offset="0" stop-color="#e5e2df"/>
      <stop offset="0" stop-color="#ded9d6"/>
      <stop offset=".06" stop-color="#cfcac8"/>
      <stop offset=".18" stop-color="#a8a4a6"/>
      <stop offset=".26" stop-color="#8b878d"/>
      <stop offset=".52" stop-color="#f3f4f4"/>
      <stop offset=".58" stop-color="#e4e5e5"/>
      <stop offset=".7" stop-color="#bfbec0"/>
      <stop offset=".86" stop-color="#847f84"/>
      <stop offset=".88" stop-color="#807b80"/>
      <stop offset="1" stop-color="#d1d3d4"/>
      <stop offset="1" stop-color="#a7a9ac"/>
    </linearGradient>
  </defs>
  <path class="cls-1" d="M22.5,25.98H7.5L0,12.99,7.5,0h15l7.5,12.99-7.5,12.99ZM7.91,25.28h14.19l7.09-12.29L22.09.71H7.91L.81,12.99l7.09,12.29h0ZM24.03,12.97c0-1.22-.24-2.39-.68-3.45-.46-1.11-1.13-2.1-1.96-2.93-.83-.83-1.83-1.5-2.93-1.96-1.06-.44-2.23-.68-3.45-.68s-2.39.24-3.45.68c-1.11.46-2.1,1.13-2.93,1.96-.19.19-.38.4-.56.61-.17.2-.33.41-.48.63h0l-.04.06-.02.03h0v.02h-.01l-.06.09h0c-.46.71-.83,1.49-1.08,2.32s-.39,1.71-.39,2.62v.04c0,.91.13,1.79.39,2.62.25.83.62,1.61,1.08,2.32h0l.06.09h0v.02h.01l.02.03.04.06h0c.15.22.31.43.48.63.18.21.36.42.56.61.83.83,1.83,1.5,2.93,1.96,1.06.44,2.23.68,3.45.68s2.39-.24,3.45-.68c1.11-.46,2.1-1.13,2.93-1.96s1.5-1.83,1.96-2.93c.44-1.06.68-2.23.68-3.45v-.02s0-.01,0-.02ZM10.92,12.6c.01-.63.06-1.24.14-1.82.08-.6.2-1.17.34-1.71.52.08,1.06.15,1.6.19.53.04,1.07.07,1.62.08v3.26h-3.71,0ZM21.84,8.3c.43.63.78,1.32,1.02,2.06.24.71.38,1.46.41,2.24h-3.45c-.01-.65-.06-1.28-.15-1.89-.08-.62-.2-1.21-.35-1.77.43-.08.85-.18,1.27-.28.42-.11.84-.23,1.24-.36h.01ZM19.1,5.77c.65.37,1.24.82,1.76,1.34.1.1.2.2.29.31l.21.24c-.35.11-.71.21-1.08.3-.38.09-.77.18-1.16.25-.09-.27-.18-.53-.29-.78-.11-.27-.23-.52-.35-.76-.2-.38-.41-.73-.64-1.04-.17-.23-.35-.44-.53-.62.63.18,1.23.44,1.79.76ZM15.37,4.73c.44.09.87.32,1.27.68.44.4.84.95,1.18,1.62.11.21.21.44.31.67.09.21.17.43.25.65-.48.07-.98.13-1.48.17s-1.01.07-1.52.07v-3.87h0ZM15.37,9.34c.55,0,1.09-.04,1.62-.08.54-.05,1.07-.11,1.6-.19.14.54.26,1.11.34,1.71.08.58.13,1.19.14,1.82h-3.71v-3.26h.01ZM13.36,5.41c.4-.36.82-.6,1.27-.68v3.87c-.51,0-1.02-.03-1.52-.07s-1-.1-1.48-.17c.08-.23.16-.45.25-.65.1-.23.2-.46.31-.67.34-.67.74-1.22,1.18-1.62h-.01ZM8.85,7.42c.09-.1.19-.21.29-.31.52-.52,1.11-.98,1.76-1.34.56-.32,1.16-.57,1.79-.76-.19.19-.36.39-.53.62-.23.31-.44.66-.64,1.04-.12.24-.24.5-.35.76-.1.25-.2.51-.28.78-.39-.07-.78-.16-1.16-.25-.37-.09-.73-.19-1.08-.3.07-.08.14-.16.21-.24h-.01ZM7.14,10.36c.25-.74.59-1.43,1.02-2.06.4.13.81.25,1.24.36.41.11.84.2,1.27.28-.15.56-.26,1.15-.35,1.77-.08.61-.13,1.24-.15,1.89h-3.45c.03-.78.18-1.53.41-2.24h0ZM19.08,13.38c-.01.63-.06,1.24-.14,1.82-.08.6-.2,1.17-.34,1.71-.52-.08-1.06-.15-1.6-.19-.53-.04-1.07-.07-1.62-.08v-3.26h3.71-.01ZM8.16,17.68c-.43-.63-.78-1.32-1.02-2.06-.24-.71-.38-1.46-.41-2.24h3.45c.01.65.06,1.28.15,1.89.08.62.2,1.21.35,1.77-.43.08-.85.18-1.27.28-.42.11-.84.23-1.24.36h-.01ZM10.9,20.21c-.65-.37-1.24-.82-1.76-1.34-.1-.1-.2-.2-.29-.31-.07-.08-.14-.16-.21-.24.35-.11.71-.21,1.08-.3.38-.09.77-.18,1.16-.25.09.27.18.53.28.78.11.27.23.52.35.76.2.38.41.73.64,1.04.17.23.35.44.53.62-.63-.18-1.23-.44-1.79-.76h.01ZM14.63,21.25c-.44-.09-.87-.32-1.27-.68-.44-.4-.84-.95-1.18-1.62-.11-.21-.21-.44-.31-.67-.09-.21-.17-.43-.25-.65.48-.07.98-.13,1.48-.17s1.01-.07,1.52-.07v3.87h0ZM14.63,16.64c-.55,0-1.09.04-1.62.08-.54.05-1.07.11-1.6.19-.14-.54-.26-1.11-.34-1.71-.08-.58-.13-1.19-.14-1.82h3.71v3.26h0ZM16.64,20.57c-.4.36-.82.6-1.27.68v-3.87c.51,0,1.02.03,1.52.07.5.04,1,.1,1.48.17-.08.23-.16.45-.25.65-.1.23-.2.46-.31.67-.34.67-.74,1.22-1.18,1.62h.01ZM21.15,18.56c-.09.1-.19.21-.29.31-.52.52-1.11.98-1.76,1.34-.56.32-1.16.57-1.79.76.19-.19.36-.39.53-.62.23-.31.44-.66.64-1.04.12-.24.24-.5.35-.76.1-.25.2-.51.29-.78.39.07.78.16,1.16.25.37.09.73.19,1.08.3-.07.08-.14.16-.21.24ZM22.86,15.62c-.25.74-.59,1.43-1.02,2.06-.4-.13-.81-.25-1.24-.36-.41-.11-.84-.2-1.27-.28.15-.56.26-1.15.35-1.77.08-.61.13-1.24.15-1.89h3.45c-.03.78-.18,1.53-.41,2.24h-.01Z"/>
</svg>