<?xml version="1.0" encoding="UTF-8"?>
<svg id="Layer_1" data-name="Layer 1" xmlns="http://www.w3.org/2000/svg" xmlns:xlink="http://www.w3.org/1999/xlink" viewBox="0 0 32 27.72">
  <defs>
    <style>
      .cls-1 {
        fill: url(#Silver);
      }
    </style>
    <linearGradient id="Silver" x1="0" y1="13.86" x2="32" y2="13.86" gradientUnits="userSpaceOnUse">
      <stop offset="0" stop-color="#e5e2df"/>
      <stop offset="0" stop-color="#ded9d6"/>
      <stop offset=".06" stop-color="#cfcac8"/>
      <stop offset=".18" stop-color="#a8a4a6"/>
      <stop offset=".26" stop-color="#8b878d"/>
      <stop offset=".52" stop-color="#f3f4f4"/>
      <stop offset=".58" stop-color="#e4e5e5"/>
      <stop offset=".7" stop-color="#bfbec0"/>
      <stop offset=".86" stop-color="#847f84"/>
      <stop offset=".88" stop-color="#807b80"/>
      <stop offset="1" stop-color="#d1d3d4"/>
      <stop offset="1" stop-color="#a7a9ac"/>
    </linearGradient>
  </defs>
  <path class="cls-1" d="M24,0H8L0,13.86l8,13.86h16l8-13.86L24,0ZM8.43.75h15.13l7.57,13.1-5.05,8.75c-.02-.08-.06-.15-.1-.22-.5-.78-1.28-1.22-2.19-1.52-1.26-.42-2.54-.87-3.75-1.42-.38-.17-.78-.34-1-.72-.18-.3-.32-1.12-.32-1.12l.15-.07c.12-.08.24-.24.33-.35.15-.18.29-.38.42-.58.29-.49.45-1.02.53-1.57.41-.26.41-.68.41-1.17,0-.59-.01-1.07.16-1.63.28-.91.46-1.89.32-2.84-.05-.33-.18-.87-.42-1.26.08-.09.1-.23.04-.36-.29-.58-.77-1.1-1.38-1.34,0-.11-.05-.23-.15-.3-.02-.01-.04-.02-.06-.03.13-.14.14-.38-.06-.48-.27-.14-.59-.19-.91-.18,0-.15-.12-.28-.3-.29-.17,0-.34,0-.51.02,0-.15-.11-.29-.29-.3-.42,0-.86.06-1.25.21-.11.05-.21.1-.31.16-.21-.16-.53.05-.73.14-.28.13-.44.2-.62.33-.26.19-.4.42-.7.53-.53.2-1,.36-1.44.73-.12.1-.12.23-.06.33-.27.21-.51.46-.68.77-.09.15-.02.34.11.42-.19.37-.3.76-.38,1.22-.03.16.05.29.16.34-.03.19-.04.38-.05.57-.01.41.02.81.09,1.21.05.31.22.75.23.96.03.72-.26,1.77.4,2.23.07.5.21.98.45,1.43.13.24.29.47.46.69.09.11.19.23.3.33.03.03.27.17.27.17.1.32-.19.8-.32,1.03-.21.38-.57.55-.96.74-1.24.58-2.55,1.01-3.84,1.46-.85.3-1.58.86-2.04,1.58-.06.09-.09.19-.12.29L.87,13.86,8.43.75Z"/>
</svg>