<?xml version="1.0" encoding="UTF-8"?>
<svg id="Layer_1" data-name="Layer 1" xmlns="http://www.w3.org/2000/svg" viewBox="0 0 30 25.98">
  <path d="M22.5,25.98H7.5L0,12.99,7.5,0h15l7.5,12.99-7.5,12.99ZM7.91,25.28h14.19l7.09-12.29L22.09.71H7.91L.81,12.99l7.09,12.29ZM14.96,5.36l-7.6,6.55.03,8.71h15.23l.03-8.71-7.69-6.55ZM21.94,12.74l-.02,6.65-3.55-3.65,3.57-3.01ZM12.23,16.11l2.91,2.36,2.69-2.26,3.61,3.71h-12.84l3.63-3.8ZM21.7,12.02l-.32.27-6.26,5.27-6.84-5.55,6.68-5.71,6.74,5.73ZM11.68,15.67l-3.59,3.76-.02-6.69,3.61,2.93Z"/>
</svg>